<svg xmlns="http://www.w3.org/2000/svg" viewBox="0 0 500 500" role="img" aria-labelledby="title desc"><title id="title">Street Hover Board</title><desc id="desc">Vehicle starter, rendered as editable layered isometric vector art.</desc><defs><filter id="glow" x="-50%" y="-50%" width="200%" height="200%"><feGaussianBlur stdDeviation="5" result="b"/><feMerge><feMergeNode in="b"/><feMergeNode in="SourceGraphic"/></feMerge></filter></defs><style>.face{fill:#202a24;stroke:#0a0d0b;stroke-width:5;stroke-linejoin:round}.side{fill:#40513f;stroke:#0a0d0b;stroke-width:5;stroke-linejoin:round}.edge{fill:#111714;stroke:#0a0d0b;stroke-width:5;stroke-linejoin:round}.panel{fill:#29362d;stroke:#8fa28f;stroke-width:4;stroke-linejoin:round}.glow{fill:#a8ff18;stroke:#dfff9d;stroke-width:4;filter:url(#glow);stroke-linejoin:round}.line{fill:none;stroke:#a8ff18;stroke-width:8;stroke-linejoin:round}</style><path class="side" d="M55 238l49 29 338-66-49-29z"/><path class="edge" d="M104 267l338-66-1 66-337 69z"/><path class="face" d="M55 238l49 29v69l-49-29c-27-16-27-53 0-69z"/><path class="panel" d="M104 267l338-66c27 15 27 51-1 66l-337 69z"/><path class="glow" d="M132 301l276-54v17l-276 57z"/><ellipse class="glow" cx="151" cy="351" rx="42" ry="14"/><ellipse class="glow" cx="365" cy="308" rx="42" ry="14"/></svg>