<svg xmlns="http://www.w3.org/2000/svg" viewBox="0 0 640 360" role="img" aria-labelledby="t d"><title id="t">Nightcrawler dune quad</title><desc id="d">Bodyless black tube-frame dune buggy with four large tyres and an exposed engine.</desc><defs><linearGradient id="sand" x2="0" y2="1"><stop stop-color="#d7893d"/><stop offset="1" stop-color="#59301b"/></linearGradient></defs><rect width="640" height="360" rx="28" fill="url(#sand)"/><path d="M0 280q130-65 270 0t370-12v92H0Z" fill="#bb672c"/><g fill="#08090a" stroke="#30363b" stroke-width="10"><circle cx="165" cy="276" r="61"/><circle cx="480" cy="276" r="61"/><circle cx="165" cy="276" r="25" fill="#69737a"/><circle cx="480" cy="276" r="25" fill="#69737a"/></g><g fill="none" stroke="#080a0b" stroke-width="17" stroke-linecap="round" stroke-linejoin="round"><path d="m165 252 45-121h177l93 121M210 131l-12 121m189-121 40 121M198 252h229M210 131l90 121 87-121"/><path d="M235 131 275 75h96l16 56"/></g><g fill="#3d454b" stroke="#0a0b0c" stroke-width="8"><rect x="352" y="177" width="92" height="72" rx="9"/><path d="M369 177v72m26-72v72m25-72v72"/></g><path d="M268 201h81l-17 37h-76Z" fill="#151719"/><text x="28" y="47" fill="#fff" font-family="system-ui" font-weight="900" font-size="25">NIGHTCRAWLER DUNE QUAD</text><text x="29" y="75" fill="#b9ff38" font-family="system-ui" font-weight="800" font-size="15">NO BODY • EXPOSED FRAME + ENGINE</text></svg>
